<svg width="38" height="30" viewBox="0 0 38 30" fill="none" xmlns="http://www.w3.org/2000/svg">
    <path fill-rule="evenodd" clip-rule="evenodd"
        d="M14.2916 0.901855H23.7094C24.3553 0.901855 25.2028 1.32217 25.6003 1.84045L28.1883 5.65634C28.4411 6.02767 28.8615 6.25321 29.3103 6.25321H34.8758C36.1743 6.25321 37.2245 7.31254 37.2245 8.62589V27.2688C37.2245 28.5798 36.1743 29.6426 34.8758 29.6426H3.12529C1.82675 29.6426 0.775391 28.5821 0.775391 27.2688V8.62589C0.775391 7.31482 1.82675 6.25321 3.12529 6.25321H8.71358C9.14756 6.25321 9.55421 6.03679 9.80025 5.67684L12.3996 1.84045C12.7983 1.32331 13.6492 0.901855 14.2916 0.901855ZM27.8192 9.22368C27.8192 9.87979 28.3455 10.4117 28.9947 10.4117C29.6451 10.4117 30.1703 9.87979 30.1703 9.22368C30.1703 8.56758 29.6451 8.03449 28.9947 8.03449C28.3455 8.03449 27.8192 8.56758 27.8192 9.22368ZM10.3408 17.3826C10.3408 22.217 14.2177 26.1359 19.0006 26.1359C23.7835 26.1359 27.6592 22.217 27.6592 17.3826C27.6592 12.547 23.7835 8.62933 19.0006 8.62933C14.2177 8.62933 10.3408 12.547 10.3408 17.3826ZM4.30193 2.09082H6.65525C7.30452 2.09082 7.82963 2.61935 7.82963 3.28001V4.46806H3.1264V3.28001C3.1264 2.62276 3.64924 2.09082 4.30193 2.09082ZM11.9168 17.3853C11.9168 13.4286 15.0875 10.2243 19.0005 10.2243C22.9135 10.2243 26.0841 13.4286 26.0841 17.3853C26.0841 21.3408 22.9135 24.5463 19.0005 24.5463C15.0875 24.5463 11.9168 21.3408 11.9168 17.3853Z"
        fill="white" />
</svg>
