<svg width="20" height="20" viewBox="0 0 20 20" fill="none" xmlns="http://www.w3.org/2000/svg">
<path d="M19.3349 9.84966L11.0333 1.5524L10.4769 0.995953C10.3501 0.870004 10.1787 0.799316 9.99994 0.799316C9.82123 0.799316 9.64977 0.870004 9.52299 0.995953L0.664982 9.84966C0.535068 9.97907 0.432395 10.1332 0.363023 10.3029C0.293652 10.4727 0.258987 10.6546 0.261075 10.8379C0.269669 11.5942 0.899161 12.1979 1.65541 12.1979H2.5685V19.1954H17.4314V12.1979H18.3638C18.7312 12.1979 19.0771 12.054 19.3371 11.794C19.4651 11.6664 19.5665 11.5147 19.6354 11.3476C19.7044 11.1806 19.7395 11.0015 19.7388 10.8208C19.7388 10.4555 19.5949 10.1096 19.3349 9.84966ZM11.2031 17.6485H8.79682V13.2657H11.2031V17.6485ZM15.8845 10.651V17.6485H12.5781V12.7501C12.5781 12.2753 12.1935 11.8907 11.7187 11.8907H8.28119C7.80639 11.8907 7.42182 12.2753 7.42182 12.7501V17.6485H4.11537V10.651H2.05287L10.0021 2.70826L10.4984 3.20455L17.9492 10.651H15.8845Z" fill="#8C8C8C"/>
</svg>
