<svg width="20" height="20" viewBox="0 0 20 20" fill="none" xmlns="http://www.w3.org/2000/svg">
<path fill-rule="evenodd" clip-rule="evenodd" d="M10 0C4.5045 0 0 4.5045 0 10C0 15.4955 4.5045 20 10 20C15.4955 20 20 15.4955 20 10C20 4.5045 15.4955 0 10 0ZM10 5.04508C10.7208 5.04508 11.2613 5.58562 11.2613 6.30635C11.2613 7.02707 10.7208 7.56761 10 7.56761C9.27931 7.56761 8.73877 7.02707 8.73877 6.30635C8.73877 5.58562 9.27931 5.04508 10 5.04508ZM12.0721 13.7838C12.0721 13.964 11.8919 14.1442 11.6217 14.1442H8.37843C8.10816 14.1442 7.92798 14.0541 7.92798 13.7838V12.973C7.92798 12.7027 8.10816 12.5226 8.37843 12.5226C8.55861 12.5226 8.73879 12.3424 8.73879 12.1622V10.4505C8.73879 10.2703 8.55861 10 8.37843 10C8.10816 10 7.92798 9.90995 7.92798 9.63968V8.82887C7.92798 8.5586 8.10816 8.37842 8.37843 8.37842H10.8109C11.0811 8.37842 11.2613 8.5586 11.2613 8.82887V12.1622C11.2613 12.3424 11.4415 12.5226 11.6217 12.5226C11.8919 12.5226 12.0721 12.7027 12.0721 12.973V13.7838Z" fill="white"/>
</svg>
