<svg width="32" height="32" viewBox="0 0 32 32" fill="none" xmlns="http://www.w3.org/2000/svg">
<path d="M16.0001 2.66675C15.6465 2.66675 15.3073 2.80722 15.0573 3.05727C14.8072 3.30732 14.6667 3.64646 14.6667 4.00008V6.66675C14.6667 7.02037 14.8072 7.35951 15.0573 7.60956C15.3073 7.85961 15.6465 8.00008 16.0001 8.00008C16.3537 8.00008 16.6928 7.85961 16.9429 7.60956C17.1929 7.35951 17.3334 7.02037 17.3334 6.66675V4.00008C17.3334 3.64646 17.1929 3.30732 16.9429 3.05727C16.6928 2.80722 16.3537 2.66675 16.0001 2.66675ZM28.0001 14.6667H25.3334C24.9798 14.6667 24.6407 14.8072 24.3906 15.0573C24.1406 15.3073 24.0001 15.6465 24.0001 16.0001C24.0001 16.3537 24.1406 16.6928 24.3906 16.9429C24.6407 17.1929 24.9798 17.3334 25.3334 17.3334H28.0001C28.3537 17.3334 28.6928 17.1929 28.9429 16.9429C29.1929 16.6928 29.3334 16.3537 29.3334 16.0001C29.3334 15.6465 29.1929 15.3073 28.9429 15.0573C28.6928 14.8072 28.3537 14.6667 28.0001 14.6667ZM8.00008 16.0001C8.00008 15.6465 7.85961 15.3073 7.60956 15.0573C7.35951 14.8072 7.02037 14.6667 6.66675 14.6667H4.00008C3.64646 14.6667 3.30732 14.8072 3.05727 15.0573C2.80722 15.3073 2.66675 15.6465 2.66675 16.0001C2.66675 16.3537 2.80722 16.6928 3.05727 16.9429C3.30732 17.1929 3.64646 17.3334 4.00008 17.3334H6.66675C7.02037 17.3334 7.35951 17.1929 7.60956 16.9429C7.85961 16.6928 8.00008 16.3537 8.00008 16.0001ZM8.29341 6.66675C8.0335 6.42098 7.6866 6.28853 7.32904 6.29853C6.97147 6.30853 6.63252 6.46017 6.38675 6.72008C6.14098 6.97999 6.00853 7.32689 6.01853 7.68446C6.02853 8.04203 6.18017 8.38098 6.44008 8.62675L8.36008 10.4801C8.48893 10.6045 8.64152 10.7017 8.80875 10.7658C8.97598 10.83 9.15442 10.8598 9.33342 10.8534C9.51302 10.8527 9.69064 10.8158 9.8556 10.7447C10.0206 10.6737 10.1695 10.5701 10.2934 10.4401C10.5417 10.1903 10.6811 9.85233 10.6811 9.50008C10.6811 9.14783 10.5417 8.8099 10.2934 8.56008L8.29341 6.66675ZM22.6667 10.8534C23.01 10.852 23.3396 10.7183 23.5868 10.4801L25.5067 8.62675C25.741 8.38202 25.8733 8.05731 25.8767 7.71857C25.8802 7.37984 25.7547 7.05248 25.5255 6.80297C25.2964 6.55347 24.9809 6.40054 24.6431 6.37524C24.3053 6.34994 23.9705 6.45416 23.7067 6.66675L21.7867 8.56008C21.5384 8.8099 21.399 9.14783 21.399 9.50008C21.399 9.85233 21.5384 10.1903 21.7867 10.4401C22.0176 10.6837 22.3318 10.8313 22.6667 10.8534ZM16.0001 24.0001C15.6465 24.0001 15.3073 24.1406 15.0573 24.3906C14.8072 24.6407 14.6667 24.9798 14.6667 25.3334V28.0001C14.6667 28.3537 14.8072 28.6928 15.0573 28.9429C15.3073 29.1929 15.6465 29.3334 16.0001 29.3334C16.3537 29.3334 16.6928 29.1929 16.9429 28.9429C17.1929 28.6928 17.3334 28.3537 17.3334 28.0001V25.3334C17.3334 24.9798 17.1929 24.6407 16.9429 24.3906C16.6928 24.1406 16.3537 24.0001 16.0001 24.0001ZM23.6401 21.5201C23.3855 21.2743 23.0437 21.1398 22.6898 21.146C22.336 21.1523 21.9992 21.2988 21.7534 21.5534C21.5076 21.808 21.3731 22.1498 21.3793 22.5037C21.3856 22.8575 21.5321 23.1943 21.7867 23.4401L23.7067 25.3334C23.9539 25.5717 24.2835 25.7054 24.6267 25.7067C24.8054 25.7078 24.9824 25.6729 25.1474 25.6042C25.3123 25.5355 25.4617 25.4343 25.5868 25.3067C25.7117 25.1828 25.8109 25.0353 25.8786 24.8729C25.9463 24.7104 25.9811 24.5361 25.9811 24.3601C25.9811 24.1841 25.9463 24.0098 25.8786 23.8473C25.8109 23.6848 25.7117 23.5374 25.5868 23.4134L23.6401 21.5201ZM8.36008 21.5201L6.44008 23.3734C6.31511 23.4974 6.21592 23.6448 6.14823 23.8073C6.08053 23.9698 6.04568 24.1441 6.04568 24.3201C6.04568 24.4961 6.08053 24.6704 6.14823 24.8329C6.21592 24.9953 6.31511 25.1428 6.44008 25.2668C6.56514 25.3943 6.71456 25.4955 6.87947 25.5642C7.04439 25.6329 7.22143 25.6678 7.40008 25.6667C7.72877 25.6695 8.0469 25.5508 8.29341 25.3334L10.2134 23.4801C10.468 23.2343 10.6146 22.8975 10.6208 22.5437C10.6271 22.1898 10.4925 21.848 10.2467 21.5934C10.001 21.3388 9.66414 21.1923 9.31032 21.186C8.9565 21.1798 8.61469 21.3143 8.36008 21.5601V21.5201Z" fill="#C8C8C8"/>
</svg>
