<svg width="110" height="111" viewBox="0 0 110 111" fill="none" xmlns="http://www.w3.org/2000/svg">
    <defs>
        <linearGradient id="paint0_linear_101_1619" x1="-3.45401" y1="44.0517" x2="50.6067"
            y2="122.491" gradientUnits="userSpaceOnUse">
            <stop stop-color="#F7941D" />
            <stop offset="0.325967" stop-color="#EC7C30" />
            <stop offset="0.685083" stop-color="#DA316A" />
            <stop offset="1" stop-color="#D01A7C" />
        </linearGradient>
    </defs>
    <path
        d="M56.804 19.1643V17.0105H56.7681L56.7322 17.0117L56.804 19.1643ZM30.2274 39.882L32.2246 40.6885L32.2246 40.6885L30.2274 39.882ZM12.8011 42.0013L10.6639 41.7341L10.6584 41.7782L10.6547 41.8224L12.8011 42.0013ZM28.954 20.8353L27.7977 19.0182L27.7977 19.0182L28.954 20.8353ZM89.6669 25.2913L88.1011 26.7702L88.1012 26.7704L89.6669 25.2913ZM90.6794 26.3605L89.1162 27.8423L89.1164 27.8425L90.6794 26.3605ZM104.706 62.0533L102.553 61.9966L104.706 62.0533ZM14.472 83.7763L16.3447 82.7122L16.3068 82.6454L16.2642 82.5815L14.472 83.7763ZM14.472 79.8773L12.5456 78.914H12.5456L14.472 79.8773ZM14.7007 79.4065L12.7596 78.473L12.7595 78.4732L14.7007 79.4065ZM42.322 49.7993L41.3142 47.8957L41.3142 47.8958L42.322 49.7993ZM76.4115 40.8696L76.4384 38.7159L76.4382 38.7159L76.4115 40.8696ZM56.7322 17.0117C53.7535 17.111 49.0046 17.7588 44.3136 19.6936C39.6176 21.6305 34.7997 24.9368 32.0406 30.4551L35.8935 32.3815C38.0359 28.0966 41.8515 25.3688 45.9561 23.6759C50.0656 21.9809 54.2845 21.4034 56.8757 21.317L56.7322 17.0117ZM32.0406 30.4551C30.3258 33.8847 29.1651 36.7605 28.2303 39.0756L32.2246 40.6885C33.1566 38.3803 34.2623 35.644 35.8935 32.3815L32.0406 30.4551ZM28.2303 39.0756C26.9264 42.3045 26.1853 44.0503 25.185 45.1212C24.4028 45.9585 23.2971 46.5314 20.599 46.5314V50.8391C23.9746 50.8391 26.4405 50.0876 28.3329 48.0618C30.007 46.2696 31.0434 43.6137 32.2246 40.6885L28.2303 39.0756ZM20.599 46.5314C17.7744 46.5314 16.445 45.6158 15.7922 44.8164C15.0711 43.9335 14.892 42.8458 14.9475 42.1802L10.6547 41.8224C10.5245 43.3848 10.9024 45.6391 12.4557 47.5412C14.0773 49.5268 16.7396 50.8391 20.599 50.8391V46.5314ZM14.9383 42.2685C15.4057 38.5296 19.4787 29.4181 30.1104 22.6524L27.7977 19.0182C16.2269 26.3814 11.3105 36.561 10.6639 41.7341L14.9383 42.2685ZM30.1104 22.6524C41.9959 15.0889 49.3877 14.0772 56.804 14.0772V9.76949C48.6243 9.76949 40.4201 10.9858 27.7977 19.0182L30.1104 22.6524ZM56.804 14.0772C60.4472 14.0772 66.0588 14.8672 71.9067 16.8838C77.7538 18.9 83.6786 22.0875 88.1011 26.7702L91.2328 23.8125C86.1864 18.4692 79.5788 14.9727 73.311 12.8114C67.0442 10.6504 60.9588 9.76949 56.804 9.76949V14.0772ZM88.1012 26.7704C88.4431 27.1323 88.782 27.4897 89.1162 27.8423L92.2425 24.8788C91.9077 24.5255 91.5715 24.1709 91.2327 23.8123L88.1012 26.7704ZM89.1164 27.8425C93.2414 32.1929 96.642 35.8018 99.0237 40.7539C101.385 45.6638 102.814 52.0653 102.553 61.9966L106.859 62.1099C107.133 51.7059 105.644 44.5799 102.906 38.8868C100.188 33.2358 96.3077 29.166 92.2423 24.8786L89.1164 27.8425ZM102.553 61.9966C102.02 82.2349 84.9319 106.13 57.361 106.13V110.438C87.718 110.438 106.278 84.2037 106.859 62.1099L102.553 61.9966ZM57.361 106.13C33.381 106.13 20.7864 90.5296 16.3447 82.7122L12.5994 84.8403C17.441 93.3615 31.2112 110.438 57.361 110.438V106.13ZM16.2642 82.5815C16.291 82.6218 16.1767 82.4385 16.1427 82.0821C16.1127 81.7666 16.1486 81.3404 16.3985 80.8405L12.5456 78.914C11.2614 81.4823 11.9419 83.864 12.6799 84.971L16.2642 82.5815ZM16.3985 80.8405C16.4656 80.7062 16.55 80.5307 16.6418 80.3397L12.7595 78.4732C12.6619 78.6762 12.5943 78.8166 12.5456 78.914L16.3985 80.8405ZM16.6417 80.34C18.3352 76.8187 26.0261 60.8636 43.3298 51.7028L41.3142 47.8958C22.7115 57.7443 14.519 74.8148 12.7596 78.473L16.6417 80.34ZM43.3298 51.7028C51.8114 47.2126 58.2808 45.0377 63.4803 43.9839C68.6749 42.931 72.6849 42.9774 76.3848 43.0233L76.4382 38.7159C72.705 38.6696 68.3011 38.6115 62.6246 39.762C56.953 40.9115 50.0942 43.2476 41.3142 47.8957L43.3298 51.7028ZM76.3846 43.0233C77.1042 43.0323 77.821 43.0412 78.527 43.0412V38.7335C77.8524 38.7335 77.1625 38.725 76.4384 38.7159L76.3846 43.0233ZM78.527 43.0412C80.5606 43.0412 82.3047 42.8976 83.7414 42.5693C85.157 42.2457 86.4709 41.6987 87.4302 40.7393C88.4652 39.7044 88.8818 38.3977 88.8251 37.0379C88.7723 35.7685 88.3138 34.4787 87.6945 33.2401L83.8416 35.1665C84.3363 36.1559 84.5045 36.8156 84.5212 37.2172C84.5342 37.5284 84.4634 37.6142 84.3843 37.6933C84.2296 37.8479 83.8028 38.1364 82.7815 38.3699C81.7814 38.5985 80.3923 38.7335 78.527 38.7335V43.0412ZM87.6945 33.2401C87.1308 32.1127 85.9434 30.5684 84.349 28.9378C82.7174 27.2691 80.5485 25.3965 77.9115 23.6385C72.6429 20.1261 65.4102 17.0105 56.804 17.0105V21.3182C64.3508 21.3182 70.7646 24.0511 75.522 27.2227C77.8981 28.8067 79.8371 30.4849 81.269 31.9494C82.7381 33.4518 83.5698 34.6229 83.8416 35.1665L87.6945 33.2401Z"
        fill="url(#paint0_linear_101_1619)" />
</svg>
