<svg width="20" height="20" viewBox="0 0 20 20" fill="none" xmlns="http://www.w3.org/2000/svg">
<path d="M18.8687 12.4426L17.4614 11.2395C17.528 10.8312 17.5624 10.4145 17.5624 9.99765C17.5624 9.58086 17.528 9.16406 17.4614 8.75586L18.8687 7.55273C18.9748 7.46187 19.0508 7.34085 19.0865 7.20576C19.1221 7.07067 19.1159 6.92792 19.0685 6.79648L19.0491 6.74062C18.6617 5.65787 18.0816 4.65414 17.3368 3.77793L17.2981 3.73281C17.2078 3.62658 17.0874 3.55021 16.9528 3.51377C16.8181 3.47734 16.6756 3.48255 16.544 3.52871L14.7974 4.14961C14.1528 3.62109 13.4331 3.2043 12.6554 2.91211L12.3181 1.08594C12.2926 0.948528 12.226 0.822115 12.127 0.723491C12.028 0.624868 11.9013 0.558704 11.7638 0.533789L11.7058 0.523047C10.5864 0.321094 9.40909 0.321094 8.28975 0.523047L8.23174 0.533789C8.09424 0.558704 7.96756 0.624868 7.86856 0.723491C7.76955 0.822115 7.70289 0.948528 7.67745 1.08594L7.33799 2.9207C6.56646 3.21295 5.84798 3.62953 5.21104 4.15391L3.45147 3.52871C3.31991 3.48218 3.17731 3.47678 3.04261 3.51324C2.90791 3.5497 2.7875 3.62628 2.69737 3.73281L2.6587 3.77793C1.91479 4.65476 1.33478 5.65832 0.946391 6.74062L0.927055 6.79648C0.830375 7.06504 0.909868 7.36582 1.12686 7.55273L2.55127 8.76875C2.48467 9.17266 2.45245 9.58516 2.45245 9.99551C2.45245 10.408 2.48467 10.8205 2.55127 11.2223L1.12686 12.4383C1.02072 12.5291 0.944751 12.6502 0.90906 12.7853C0.873369 12.9203 0.879646 13.0631 0.927055 13.1945L0.946391 13.2504C1.33526 14.3332 1.91104 15.3322 2.6587 16.2131L2.69737 16.2582C2.78772 16.3644 2.90814 16.4408 3.04276 16.4772C3.17737 16.5137 3.31987 16.5085 3.45147 16.4623L5.21104 15.8371C5.85127 16.3635 6.5667 16.7803 7.33799 17.0703L7.67745 18.9051C7.70289 19.0425 7.76955 19.1689 7.86856 19.2675C7.96756 19.3661 8.09424 19.4323 8.23174 19.4572L8.28975 19.468C9.41937 19.671 10.5761 19.671 11.7058 19.468L11.7638 19.4572C11.9013 19.4323 12.028 19.3661 12.127 19.2675C12.226 19.1689 12.2926 19.0425 12.3181 18.9051L12.6554 17.0789C13.4328 16.7875 14.1566 16.3693 14.7974 15.8414L16.544 16.4623C16.6756 16.5088 16.8182 16.5142 16.9529 16.4778C17.0876 16.4413 17.208 16.3647 17.2981 16.2582L17.3368 16.2131C18.0845 15.3301 18.6603 14.3332 19.0491 13.2504L19.0685 13.1945C19.1651 12.9303 19.0856 12.6295 18.8687 12.4426ZM15.936 9.00937C15.9897 9.33379 16.0177 9.6668 16.0177 9.9998C16.0177 10.3328 15.9897 10.6658 15.936 10.9902L15.7942 11.8518L17.3991 13.2246C17.1558 13.7851 16.8487 14.3157 16.4839 14.8059L14.4901 14.099L13.8155 14.6533C13.3021 15.0744 12.7306 15.4053 12.1118 15.6373L11.2933 15.9445L10.9087 18.0285C10.3019 18.0973 9.68931 18.0973 9.08252 18.0285L8.69795 15.9402L7.88584 15.6287C7.27354 15.3967 6.7042 15.0658 6.19502 14.6469L5.52041 14.0904L3.51377 14.8037C3.14854 14.3117 2.84346 13.7811 2.59854 13.2225L4.22061 11.8367L4.08096 10.9773C4.0294 10.6572 4.00147 10.3264 4.00147 9.9998C4.00147 9.67109 4.02725 9.34238 4.08096 9.02226L4.22061 8.16289L2.59854 6.77715C2.84131 6.21641 3.14854 5.68789 3.51377 5.1959L5.52041 5.90918L6.19502 5.35273C6.7042 4.93379 7.27354 4.60293 7.88584 4.3709L8.7001 4.06367L9.08467 1.97539C9.68838 1.90664 10.305 1.90664 10.9108 1.97539L11.2954 4.05937L12.114 4.3666C12.7306 4.59863 13.3042 4.92949 13.8177 5.35059L14.4923 5.90488L16.486 5.19805C16.8513 5.69004 17.1564 6.2207 17.4013 6.7793L15.7964 8.15215L15.936 9.00937ZM9.99991 6.00371C7.91163 6.00371 6.21866 7.69668 6.21866 9.78496C6.21866 11.8732 7.91163 13.5662 9.99991 13.5662C12.0882 13.5662 13.7812 11.8732 13.7812 9.78496C13.7812 7.69668 12.0882 6.00371 9.99991 6.00371ZM11.7015 11.4865C11.4783 11.7103 11.2131 11.8878 10.921 12.0088C10.629 12.1297 10.316 12.1917 9.99991 12.1912C9.35752 12.1912 8.75381 11.9398 8.29834 11.4865C8.07453 11.2633 7.89705 10.9981 7.77611 10.7061C7.65517 10.4141 7.59316 10.101 7.59366 9.78496C7.59366 9.14258 7.84502 8.53887 8.29834 8.0834C8.75381 7.62793 9.35752 7.37871 9.99991 7.37871C10.6423 7.37871 11.246 7.62793 11.7015 8.0834C11.9253 8.30657 12.1028 8.5718 12.2237 8.86382C12.3446 9.15584 12.4066 9.46889 12.4062 9.78496C12.4062 10.4273 12.1548 11.0311 11.7015 11.4865Z" fill="#ED5992"/>
</svg>
